<svg xmlns:dc="http://purl.org/dc/elements/1.1/" xmlns:cc="http://creativecommons.org/ns#" xmlns:rdf="http://www.w3.org/1999/02/22-rdf-syntax-ns#" xmlns:svg="http://www.w3.org/2000/svg" xmlns="http://www.w3.org/2000/svg" xmlns:sodipodi="http://sodipodi.sourceforge.net/DTD/sodipodi-0.dtd" xmlns:inkscape="http://www.inkscape.org/namespaces/inkscape" version="1.1" x="0px" y="0px" viewBox="0 0 100 125"><g transform="translate(0,-952.36218)"><path style="text-indent:0;text-transform:none;direction:ltr;block-progression:tb;baseline-shift:baseline;color:#000000;enable-background:accumulate;" d="m 49.7812,962.37807 a 1.0001,1.0001 0 0 0 -0.25,0.094 l -43.0000005,22 a 1.0001,1.0001 0 0 0 0,1.7813 l 14.8750005,7.625 -14.8750005,7.59373 a 1.0001,1.0001 0 0 0 0,1.7813 l 14.8750005,7.625 -14.8750005,7.5937 a 1.0001,1.0001 0 0 0 0,1.7813 l 43.0000005,22 a 1.0001,1.0001 0 0 0 0.9376,0 l 43,-22 a 1.0001,1.0001 0 0 0 0,-1.7813 l -14.875,-7.5937 14.875,-7.625 a 1.0001,1.0001 0 0 0 0,-1.7813 l -14.875,-7.59373 14.875,-7.625 a 1.0001,1.0001 0 0 0 0,-1.7813 l -43,-22 a 1.0001,1.0001 0 0 0 -0.6876,-0.094 z m 0.2188,2.125 40.7812,20.875 L 50,1006.2219 9.2187997,985.37807 50,964.50307 z m -26.4062,30.5 25.9374,13.25003 a 1.0001,1.0001 0 0 0 0.9376,0 l 25.9374,-13.25003 14.375,7.34383 L 50,1023.2219 9.2187997,1002.3469 23.5938,995.00307 z m 0,17.00003 25.9374,13.25 a 1.0001,1.0001 0 0 0 0.9376,0 l 25.9374,-13.25 14.375,7.3438 L 50,1040.2219 9.2187997,1019.3469 23.5938,1012.0031 z" fill="#ffffff" fill-opacity="1" stroke="none" marker="none" visibility="visible" display="inline" overflow="visible"/></g></svg>