<svg fill="#fff" height="48" viewBox="0 0 700 700" width="48" xmlns="http://www.w3.org/2000/svg"><path d="m503.76 362.21c-3.5469 0-6.7461-2.1406-8.0938-5.4219-1.3477-3.2812-.58203-7.0547 1.9414-9.5469l67.453-66.754-67.453-66.77c-1.6875-1.625-2.6523-3.8555-2.6797-6.1953-.027343-2.3398.88281-4.5938 2.5273-6.2578 1.6484-1.6641 3.8906-2.6016 6.2305-2.5977 2.3398 0 4.582.94141 6.2266 2.6094l73.742 72.992c1.6641 1.6406 2.5977 3.8828 2.5977 6.2188s-.93359 4.5781-2.5977 6.2227l-73.742 72.973c-1.6367 1.6211-3.8477 2.5312-6.1523 2.5273z"/><path d="m196.24 361.25c-2.3047.003906-4.5156-.90625-6.1523-2.5273l-73.742-72.973c-1.6641-1.6445-2.5977-3.8867-2.5977-6.2227 0-2.3359.93359-4.5781 2.5977-6.2227l73.742-72.992v.003906c1.6445-1.668 3.8867-2.6094 6.2266-2.6094 2.3398-.003906 4.582.93359 6.2305 2.5977 1.6445 1.6641 2.5547 3.918 2.5273 6.2578-.027344 2.3398-.99219 4.5703-2.6797 6.1953l-67.453 66.77 67.453 66.754c2.5234 2.4922 3.2891 6.2656 1.9414 9.5469-1.3516 3.2812-4.5469 5.4219-8.0938 5.4219z"/><path d="m252.62 307.93c-7.5352 0-14.762-2.9961-20.086-8.3281-5.3281-5.3281-8.3203-12.555-8.3164-20.094 0-7.5352 2.9961-14.758 8.3281-20.086 5.3281-5.3281 12.559-8.3164 20.094-8.3164 7.5352.003906 14.758 3 20.086 8.3281 5.3281 5.332 8.3164 12.559 8.3164 20.094-.011719 7.5312-3.0117 14.754-8.3398 20.078s-12.547 8.3164-20.082 8.3242zm0-39.324c-4.4102.003906-8.3867 2.6641-10.074 6.7422-1.6875 4.0742-.75391 8.7656 2.3672 11.887 3.1211 3.1211 7.8125 4.0547 11.887 2.3672 4.0781-1.6875 6.7383-5.6641 6.7422-10.074-.003907-6.0312-4.8906-10.918-10.922-10.918z"/><path d="m350 307.93c-7.5352 0-14.762-2.9961-20.09-8.3281-5.3242-5.3281-8.3164-12.555-8.3125-20.094 0-7.5352 2.9961-14.758 8.3281-20.086 5.3281-5.3281 12.555-8.3164 20.09-8.3164 7.5352.003906 14.762 3 20.09 8.3281 5.3242 5.332 8.3164 12.559 8.3164 20.094-.015625 7.5312-3.0117 14.754-8.3398 20.078s-12.551 8.3164-20.082 8.3242zm0-39.32c-4.4102 0-8.3867 2.6602-10.074 6.7383s-.75391 8.7695 2.3672 11.887c3.1172 3.1211 7.8086 4.0547 11.887 2.3672 4.0781-1.6875 6.7383-5.6602 6.7422-10.074-.011719-6.0273-4.8945-10.91-10.922-10.918z"/><path d="m447.38 307.93c-7.5391.003906-14.766-2.9883-20.098-8.3164-5.3281-5.3281-8.3242-12.555-8.3242-20.094 0-7.5352 2.9922-14.762 8.3203-20.09 5.3281-5.332 12.559-8.3242 20.094-8.3242s14.766 2.9961 20.094 8.3281c5.3281 5.3281 8.3164 12.559 8.3164 20.094-.011719 7.5273-3.0078 14.746-8.332 20.07-5.3242 5.3242-12.543 8.3203-20.07 8.332zm0-39.324c-4.4141-.003907-8.3945 2.6523-10.09 6.7305-1.6914 4.0742-.76172 8.7695 2.3555 11.891 3.1211 3.125 7.8125 4.0625 11.891 2.375 4.082-1.6836 6.7422-5.6602 6.7461-10.074-.011719-6.0195-4.8828-10.898-10.902-10.918z"/></svg>