<svg fill="#fff" height="48" viewBox="0 0 700 700" width="48" xmlns="http://www.w3.org/2000/svg"><path d="m489.5 183.19c-1.1445 0-2.2578.015625-3.3672.050781-9.1523-36.133-34.32-66.098-68.328-81.355-34.008-15.258-73.125-14.133-106.2 3.0508-33.078 17.184-56.484 48.543-63.551 85.141-29.516-11.145-62.461-8.6094-89.926 6.918-27.465 15.531-46.613 42.453-52.277 73.492-5.6641 31.039 2.7461 62.992 22.953 87.219 20.211 24.23 50.137 38.238 81.688 38.234h9.3672-.003906c4.8359 0 8.75-3.918 8.75-8.75s-3.9141-8.75-8.75-8.75h-9.3633c-31.723-.042969-61.016-16.992-76.867-44.473-15.848-27.48-15.848-61.324 0-88.805 15.852-27.48 45.145-44.43 76.867-44.473 14.113-.007812 28.023 3.3828 40.555 9.875 2.5898 1.3477 5.6797 1.3125 8.2383-.085938 2.5625-1.3984 4.2578-3.9805 4.5273-6.8867 3.1133-33.777 22.43-63.941 51.809-80.902 29.379-16.957 65.16-18.602 95.969-4.4102 30.809 14.195 52.809 42.461 59.008 75.812.88672 4.4766 5.0273 7.5547 9.5703 7.1094 3.1016-.34766 6.2148-.51953 9.332-.51562 31.723.046875 61.016 16.996 76.867 44.477 15.848 27.48 15.848 61.324 0 88.805-15.852 27.477-45.145 44.426-76.867 44.473h-12.75c-4.832 0-8.75 3.918-8.75 8.75s3.918 8.75 8.75 8.75h12.75c37.973-.050781 73.039-20.336 92.012-53.227 18.973-32.895 18.973-73.406 0-106.3-18.973-32.895-54.039-53.18-92.012-53.23z"/><path d="m349.06 365.38c0-2.3203-.92188-4.5469-2.5625-6.1875l-64.617-64.617c-1.6328-1.668-3.8672-2.6133-6.2031-2.625-2.3359-.011719-4.5781.91016-6.2305 2.5625-1.6523 1.6523-2.5742 3.8945-2.5625 6.2305.011719 2.3359.95703 4.5703 2.625 6.2031l58.43 58.43-58.43 58.414c-1.668 1.6367-2.6133 3.8711-2.625 6.2031-.011718 2.3359.91016 4.582 2.5625 6.2344 1.6523 1.6484 3.8945 2.5742 6.2305 2.5625 2.3359-.015625 4.5703-.95703 6.2031-2.6289l64.617-64.598c1.6406-1.6406 2.5625-3.8633 2.5625-6.1836z"/><path d="m424.3 421.23h-83.996c-4.832 0-8.75 3.918-8.75 8.75s3.918 8.75 8.75 8.75h83.996c4.8359 0 8.75-3.918 8.75-8.75s-3.9141-8.75-8.75-8.75z"/></svg>