<svg fill="#fff" height="48" viewBox="0 0 700 700" width="48" xmlns="http://www.w3.org/2000/svg"><path d="m350 83.996c-88.473 0-220.1 15.391-220.1 57.781v276.45c0 27.738 54.723 42.125 100.62 49.305.45312.066406.91016.10156 1.3672.10156 4.5703-.007812 8.3633-3.5273 8.7109-8.082.34766-4.5547-2.8633-8.6094-7.375-9.3164-62.531-9.7734-85.824-24.832-85.824-32.008l-.003906-71c31.953 15.328 66.449 24.652 101.77 27.508.36328.046875.73047.070312 1.0938.066406 4.6211-.007813 8.4375-3.6094 8.7148-8.2188.28125-4.6094-3.0703-8.6445-7.6523-9.2109-78.527-9.7773-103.92-27.496-103.92-34.555l-.003906-66.426c38.562 24.25 133.58 33.688 202.6 33.688s164.04-9.4375 202.6-33.688v66.422c0 7.0586-25.395 24.781-103.91 34.539-4.5781.57422-7.9258 4.6094-7.6445 9.2148s4.0898 8.2031 8.7031 8.2188c.36719 0 .73047-.019531 1.0938-.070312 35.316-2.8477 69.805-12.164 101.75-27.484v70.996c0 6.9375-22.301 21.617-82.152 31.43-4.4922.73828-7.6641 4.7969-7.3008 9.3359.36719 4.5352 4.1523 8.0352 8.7031 8.043.48047.003906.96094-.035156 1.4336-.11719 44.16-7.2305 96.812-21.551 96.812-48.688v-276.45c.003906-42.391-131.62-57.781-220.1-57.781zm0 17.5c131.1 0 202.6 26.609 202.6 40.281s-71.504 40.281-202.6 40.281-202.6-26.609-202.6-40.281 71.504-40.281 202.6-40.281zm0 171.08c-131.1 0-202.6-26.609-202.6-40.281v-66.422c38.562 24.25 133.58 33.688 202.6 33.688s164.04-9.4375 202.6-33.688v66.422c0 13.672-71.504 40.281-202.6 40.281z"/><path d="m401.94 373.77c-1.6445-1.6719-3.8867-2.6133-6.2266-2.6133-2.3438-.003906-4.5859.92969-6.2344 2.5938-1.6445 1.668-2.5547 3.9219-2.5273 6.2617.027343 2.3438.99609 4.5742 2.6836 6.1992l40.535 40.129-40.535 40.129v-.003906c-1.6875 1.625-2.6562 3.8555-2.6836 6.1953-.027344 2.3438.88281 4.5977 2.5273 6.2617 1.6484 1.6641 3.8906 2.6016 6.2344 2.5977 2.3398-.003907 4.582-.94531 6.2266-2.6133l46.824-46.348c1.6641-1.6445 2.5977-3.8828 2.5977-6.2227 0-2.3359-.93359-4.5742-2.5977-6.2188z"/><path d="m310.44 373.84c-1.6328-1.6484-3.8516-2.5859-6.1719-2.5977-2.3203-.011719-4.5508.89844-6.1992 2.5312l-46.824 46.348h-.003907c-1.6641 1.6406-2.5977 3.8828-2.5977 6.2188 0 2.3359.93359 4.5781 2.5977 6.2227l46.824 46.348h.003906c1.6406 1.668 3.8828 2.6094 6.2227 2.6133 2.3438 0 4.5859-.93359 6.2344-2.5977 1.6445-1.6641 2.5586-3.9219 2.5273-6.2617-.027343-2.3398-.99609-4.5742-2.6797-6.1953l-40.535-40.129 40.535-40.129c1.6484-1.6289 2.582-3.8516 2.5938-6.1719.015625-2.3203-.89453-4.5508-2.5273-6.1992z"/><path d="m381.22 345.8c-4.5391-1.6406-9.5508.67578-11.246 5.1953l-51.031 138.8.003907-.003906c-1.6602 4.543.66016 9.5664 5.1953 11.246.96875.35156 1.9922.53125 3.0234.53125 3.668-.003906 6.9453-2.2891 8.2188-5.7266l51.031-138.8v.003907c1.6602-4.5391-.66406-9.5664-5.1953-11.246z"/></svg>