<svg fill="#fff" height="48" viewBox="0 0 700 700" width="48" xmlns="http://www.w3.org/2000/svg"><path d="m191.07 183.48c1.9258 5.4766 5.6094 10.16 10.477 13.32 4.3516 2.8672 9.4414 4.418 14.652 4.4609.4375 0 .87109-.007813 1.3086-.035156h265.05c5.5273.011719 10.93-1.6562 15.492-4.7852 4.6406-3.1445 8.1484-7.7031 9.9961-12.996l24.199-69.957c1.4023-3.9844 1.7969-8.2578 1.1445-12.43-.65234-4.1836-2.3203-8.1445-4.8516-11.539-2.5234-3.375-5.8047-6.1094-9.5781-7.9883-3.7734-1.8359-7.9141-2.793-12.109-2.8008h-313.62c-4.2188.003906-8.3789.97266-12.168 2.8281-3.7266 1.8516-6.9727 4.5508-9.4766 7.8789-5.2539 6.8281-6.7109 15.848-3.8711 23.984zm-5.5273-83.484h-.003906c.86328-1.1523 1.9805-2.0938 3.2656-2.75 1.3828-.67578 2.9023-1.0234 4.4453-1.0156h313.55c1.5234.023437 3.0273.36719 4.418.99609 1.2969.65234 2.4258 1.5977 3.2969 2.7617.82812 1.1094 1.375 2.4023 1.5898 3.7695.20312 1.332.070313 2.6953-.38672 3.9648l-24.195 69.949c-.62109 1.7617-1.793 3.2734-3.3438 4.3125-1.6523 1.1406-3.6133 1.75-5.6211 1.7461l-265.51.007813c-2.1172.10547-4.2148-.45703-5.9922-1.6172-1.582-1.0234-2.7891-2.5352-3.4414-4.3047l-23.328-70-.050781-.15234v-.003907c-.4375-1.2422-.55859-2.5742-.35938-3.8789.22656-1.3789.79688-2.6797 1.6562-3.7852z"/><path d="m444.98 353.99c4.6914-3.1406 8.2578-7.6914 10.188-12.996l24.625-69.957c1.4375-4.0195 1.8398-8.3359 1.1719-12.551-.6875-4.1836-2.3945-8.1328-4.9648-11.504-2.5859-3.3828-5.9336-6.1133-9.7656-7.9688-3.8516-1.7812-8.0312-2.7266-12.273-2.7773h-206.64c-4.2891-.19141-8.5625.64844-12.457 2.4492-4.0352 1.7266-7.5898 4.4062-10.367 7.8047-2.7383 3.3906-4.5742 7.4219-5.3398 11.715-.73438 4.2773-.35938 8.6719 1.0859 12.766l23.773 70.102h-.003906c2 5.4766 5.75 10.145 10.664 13.277 4.4102 2.8438 9.5312 4.375 14.777 4.418.4375 0 .87109-.007813 1.3086-.035156h158.52c5.5742-.066407 11.016-1.7109 15.695-4.7422zm-174.67-12.75.003906.003907c-2.2031.09375-4.3789-.48438-6.2383-1.6602-1.6172-1.0156-2.8594-2.5234-3.5469-4.3047l-23.73-69.984-.050782-.13672c-.45312-1.2578-.57422-2.6094-.35938-3.9297.24219-1.3555.82031-2.625 1.6836-3.6992 1.0312-1.2422 2.3516-2.2109 3.8438-2.8281 1.4844-.66406 3.0938-1 4.7188-.97656l.41016.007813 206.94.003906c1.5859.17188 3.1484.51953 4.6562 1.0391 1.3555.66016 2.5352 1.6289 3.4453 2.8281.82422 1.0703 1.3711 2.3281 1.5977 3.6602.20312 1.3164.070313 2.668-.38672 3.9219l-24.609 69.914c-.66016 1.7812-1.8633 3.3047-3.4414 4.3594-1.8008 1.0625-3.8359 1.6719-5.9219 1.7773z"/><path d="m308.52 511.93c4.5156 2.793 9.7109 4.2891 15.02 4.332.46094 0 .92188-.007813 1.375-.035156h50.195c5.6328-.30469 11.121-1.9102 16.031-4.6875 4.7891-3.1016 8.4648-7.6484 10.492-12.98l25.559-69.934c1.5156-4.0664 1.9453-8.4648 1.2383-12.75-.73438-4.2461-2.5273-8.2422-5.2109-11.609-2.6914-3.3477-6.125-6.0234-10.023-7.8203-3.8945-1.7969-8.1289-2.7266-12.418-2.7188l-100.2.007812.003907.003907c-8.8984-.3125-17.465 3.3984-23.328 10.098-2.8594 3.3828-4.7852 7.4531-5.5898 11.809-.77734 4.3398-.37891 8.8047 1.1523 12.938l24.68 70.113c2.1016 5.5156 5.9805 10.172 11.023 13.234zm-19.277-89.406c-.45703-1.1914-.58203-2.4844-.35938-3.7422.25-1.3359.83984-2.582 1.7188-3.6211 1.1016-1.2852 2.4961-2.2812 4.0664-2.9141 1.625-.69922 3.375-1.0469 5.1445-1.0234l.48828.007813h100.48-.003906c1.7656-.003906 3.5078.37891 5.1094 1.1172 1.4297.65625 2.6836 1.6328 3.668 2.8555.82422 1.0312 1.3789 2.25 1.6133 3.5469.20703 1.2773.070313 2.5859-.39062 3.793l-25.539 69.898h-.003907c-.69531 1.8086-1.9492 3.3477-3.5781 4.3906-1.9336 1.2695-4.1992 1.9297-6.5117 1.8984l-50.68.007813c-2.4141.14062-4.8086-.47266-6.8555-1.7578-1.6602-.99609-2.9531-2.5039-3.6797-4.3008l-24.625-69.984z"/></svg>