<svg fill="#fff" height="48" viewBox="0 0 700 700" width="48" xmlns="http://www.w3.org/2000/svg"><path d="m390.48 528.74c-42.758.0625-82.66-21.441-106.12-57.191l-104.73-159.04c-6.5391-8.0586-9.6172-18.383-8.5586-28.711.98438-10.652 6.1602-20.48 14.387-27.316 8.2305-6.8398 18.84-10.129 29.492-9.1484 10.656.98437 20.484 6.1562 27.324 14.387l44.102 44.066v-193.82c0-14.418 7.6875-27.738 20.172-34.945 12.484-7.207 27.867-7.207 40.352 0s20.172 20.527 20.172 34.945v82.449c11.645-8.0156 26.633-9.3477 39.508-3.5156 12.879 5.8281 21.762 17.977 23.418 32.012 8.0078-5.6094 17.785-8.1172 27.504-7.0586 9.7227 1.0586 18.727 5.6133 25.34 12.816 6.6133 7.2031 10.387 16.562 10.613 26.34 6.5742-4.3438 14.246-6.7305 22.125-6.875 7.8789-.14844 15.637 1.9492 22.367 6.043 7.125 4.8008 12.52 11.762 15.383 19.859 2.8672 8.0977 3.0547 16.902.53516 25.113l-41.324 137.83v.003907c-7.7305 26.41-23.797 49.613-45.793 66.148-21.996 16.539-48.75 25.523-76.27 25.613zm-179.43-264.01c-5.2656-.003907-10.363 1.8398-14.406 5.2109-4.6602 3.8711-7.5938 9.4336-8.1523 15.465s1.3008 12.039 5.168 16.699l105.31 159.82c15.441 23.449 39.293 40.078 66.637 46.453 27.344 6.3711 56.09 2.0078 80.309-12.199 24.215-14.207 42.055-37.168 49.836-64.145l41.324-137.83c1.4648-4.5703 1.4258-9.4922-.10938-14.039s-4.4844-8.4805-8.418-11.23c-4.6289-2.9336-10.16-4.1094-15.582-3.3086-5.4219.80078-10.375 3.5273-13.957 7.6758-3.5781 4.1484-5.5508 9.4492-5.5469 14.93 0 4.832-3.918 8.75-8.75 8.75s-8.75-3.918-8.75-8.75v-32.285c0-8.1602-4.3555-15.703-11.422-19.781-7.0703-4.082-15.777-4.082-22.848 0-7.0664 4.0781-11.422 11.621-11.422 19.781 0 4.8359-3.918 8.75-8.75 8.75s-8.75-3.9141-8.75-8.75v-28.301c-.023438-8.1484-4.3828-15.668-11.441-19.734-7.0625-4.0664-15.754-4.0664-22.812 0-7.0625 4.0664-11.422 11.586-11.445 19.734 0 4.832-3.918 8.75-8.75 8.75s-8.75-3.918-8.75-8.75v-115.69c0-8.1641-4.3555-15.707-11.422-19.789-7.0703-4.082-15.781-4.082-22.852 0-7.0664 4.082-11.422 11.625-11.422 19.789v214.58c-.003906 4.1719-2.9453 7.7578-7.0352 8.582-2.9492.59766-6.0078-.27344-8.2031-2.3359l-59.273-59.285c-4.4922-5.5039-11.207-8.7227-18.312-8.7734z"/><path d="m358.33 278.64c-2.3203.003906-4.5469-.91797-6.1875-2.5625-1.6406-1.6406-2.5625-3.8672-2.5625-6.1875v-42.238c0-4.832 3.918-8.75 8.75-8.75 4.8359 0 8.75 3.918 8.75 8.75v42.238c.003906 2.3203-.91797 4.5469-2.5586 6.1875-1.6406 1.6445-3.8672 2.5664-6.1914 2.5625z"/><path d="m421.53 302.96c-2.3203 0-4.5469-.92188-6.1875-2.5625-1.6406-1.6406-2.5625-3.8672-2.5625-6.1875v-38.258c0-4.832 3.918-8.75 8.75-8.75s8.75 3.918 8.75 8.75v38.258c.003906 2.3203-.91797 4.5469-2.5625 6.1875-1.6406 1.6406-3.8672 2.5625-6.1875 2.5625z"/><path d="m484.72 323.78c-2.3203 0-4.5469-.92188-6.1914-2.5625-1.6406-1.6406-2.5625-3.8672-2.5586-6.1875v-26.789c0-4.832 3.918-8.75 8.75-8.75s8.75 3.918 8.75 8.75v26.789c0 2.3203-.92188 4.5469-2.5625 6.1875s-3.8672 2.5625-6.1875 2.5625z"/><path d="m394.03 105.11c-3.3672 0-6.4336-1.9336-7.8867-4.9648-1.4531-3.0352-1.0391-6.6367 1.0664-9.2617l52.449-65.402c1.4453-1.8203 3.5586-2.9922 5.8711-3.2539 2.3125-.25781 4.6328.41016 6.4492 1.8672 1.8164 1.4531 2.9766 3.5703 3.2266 5.8828.25 2.3164-.42969 4.6328-1.8906 6.4414l-52.449 65.422c-1.6641 2.0703-4.1797 3.2773-6.8359 3.2695z"/><path d="m450.53 76.527c-4.4609-.003906-8.2031-3.3594-8.6914-7.793l-3.0938-28.129-28.129 3.0938c-2.3086.25391-4.625-.41406-6.4375-1.8672-1.8164-1.4531-2.9766-3.5664-3.2305-5.875-.25391-2.3086.42188-4.625 1.875-6.4336 1.4531-1.8125 3.5703-2.9727 5.8789-3.2227l36.828-4.0508c2.3086-.25781 4.6211.41797 6.4336 1.8672 1.8125 1.4531 2.9688 3.5664 3.2227 5.875l4.0508 36.828c.52734 4.8047-2.9414 9.125-7.7422 9.6562-.32031.035157-.64453.050782-.96484.050782z"/><path d="m127.19 444.9c-3.3672 0-6.4336-1.9336-7.8867-4.9688-1.457-3.0312-1.0391-6.6328 1.0664-9.2578l52.457-65.41c3.0273-3.7734 8.5352-4.375 12.305-1.3516 3.7695 3.0273 4.375 8.5352 1.3516 12.305l-52.457 65.414c-1.6641 2.0703-4.1797 3.2773-6.8359 3.2695z"/><path d="m127.19 444.9c-4.4609-.003907-8.2031-3.3594-8.6914-7.793l-4.0508-36.828c-.25781-2.3086.41406-4.625 1.8633-6.4414 1.4531-1.8164 3.5664-2.9766 5.8789-3.2305 2.3086-.25391 4.625.42188 6.4375 1.875 1.8125 1.457 2.9688 3.5742 3.2188 5.8828l3.0938 28.129 28.137-3.0938c4.8008-.51563 9.1133 2.9492 9.6406 7.7461s-2.9297 9.1172-7.7266 9.6523l-36.836 4.0508c-.32031.035156-.64453.050782-.96484.050782z"/></svg>