<svg fill="#fff" height="48" viewBox="0 0 700 700" width="48" xmlns="http://www.w3.org/2000/svg"><path d="m439.64 275c-1.3477-1.918-3.3984-3.2227-5.707-3.6211-2.3164-.40625-4.6992.15234-6.5977 1.5352l-38.711 27.992c-.59766.49609-1.1289 1.0703-1.5742 1.7109l-72.422-97.82v-.003906c-1.7656-2.2461-4.4727-3.5547-7.332-3.5352-2.8867.10156-5.5352 1.6211-7.0742 4.0664l-88.852 140c-2.5859 4.0781-1.3789 9.4805 2.6992 12.066s9.4805 1.375 12.066-2.6992l82.016-129.23 96.078 129.76c2.8789 3.8789 8.3555 4.6914 12.234 1.8125 3.8789-2.8789 4.6914-8.3594 1.8125-12.238l-21.344-28.828c.68359-.21094 1.3359-.5 1.9492-.87109l31.496-22.781 43.699 62.703h-.003907c2.7656 3.9609 8.2227 4.9336 12.188 2.168 3.9648-2.7656 4.9336-8.2188 2.1719-12.184z"/><path d="m586.25 393.76h-43.75v-218.75c-.007812-6.9609-2.7773-13.633-7.6953-18.555-4.9219-4.9219-11.594-7.6875-18.555-7.6953h-341.25v-43.75c0-4.832-3.918-8.75-8.75-8.75s-8.75 3.918-8.75 8.75v43.75h-43.75c-4.832 0-8.75 3.918-8.75 8.75s3.918 8.75 8.75 8.75h43.75v218.75c.007812 6.957 2.7773 13.633 7.6953 18.551 4.9219 4.9219 11.594 7.6914 18.555 7.6992h341.25v43.75c0 4.832 3.918 8.75 8.75 8.75s8.75-3.918 8.75-8.75v-43.75h43.75c4.832 0 8.75-3.918 8.75-8.75s-3.918-8.75-8.75-8.75zm-402.5 0c-4.8281-.011718-8.7422-3.9219-8.75-8.75v-218.75h341.25c4.8281.007813 8.7422 3.9219 8.75 8.75v218.75z"/></svg>