<svg fill="#fff" height="48" viewBox="0 0 700 700" width="48" xmlns="http://www.w3.org/2000/svg"><path d="m550.82 65.266c-2.3008-1.6602-5.2656-2.0898-7.9414-1.1445-29.547 10.227-60.945 14-92.074 11.055-31.129-2.9414-61.266-12.527-88.375-28.109l-8.0664-4.6484c-2.707-1.5391-6.0273-1.5391-8.7344 0l-8.0664 4.6484c-27.109 15.578-57.246 25.164-88.375 28.105s-62.527-.82812-92.078-11.051c-2.6719-.94922-5.6406-.51953-7.9375 1.1445-2.3086 1.6406-3.6758 4.2969-3.6758 7.1289v190.39c-.066406 25.359 4.8945 50.477 14.598 73.902 9.7031 23.43 23.957 44.699 41.938 62.578l99.336 99.324v.003906c12.895 12.898 30.387 20.148 48.629 20.148 18.238 0 35.734-7.25 48.629-20.148l99.336-99.324-.003906-.003907c17.98-17.879 32.234-39.148 41.938-62.578 9.707-23.426 14.668-48.543 14.598-73.902v-190.39c.003906-2.832-1.3672-5.4883-3.6719-7.1289zm-13.824 197.52h-.003906c.0625 23.059-4.4492 45.898-13.273 67.203-8.8242 21.301-21.785 40.645-38.133 56.906l-99.336 99.324h.003906c-9.7656 9.3281-22.75 14.535-36.258 14.535-13.504 0-26.488-5.207-36.254-14.535l-99.336-99.324c-16.348-16.262-29.309-35.605-38.133-56.906-8.8242-21.305-13.336-44.145-13.273-67.203v-178.45c30.469 8.8047 62.402 11.387 93.891 7.5898 31.488-3.7969 61.895-13.895 89.398-29.688l3.707-2.1367 3.707 2.1367h.011719c27.5 15.801 57.902 25.898 89.391 29.695s63.418 1.2109 93.887-7.5977z"/><path d="m360.45 102.59-6.0859-3.5039h.003907c-2.707-1.5352-6.0273-1.5352-8.7344 0l-6.0742 3.5039c-40.793 23.441-89.742 28.066-134.21 12.68-2.6719-.94922-5.6406-.51953-7.9375 1.1445-2.3086 1.6406-3.6797 4.2969-3.6758 7.1289v143.49-.003906c-.10938 39.168 15.457 76.75 43.23 104.37l74.859 74.867c10.125 10.125 23.855 15.809 38.172 15.809s28.047-5.6836 38.172-15.809l74.859-74.867c27.773-27.621 43.34-65.203 43.23-104.37v-143.48c.003906-2.832-1.3672-5.4883-3.6758-7.1289-2.2969-1.6602-5.2656-2.0898-7.9375-1.1445-44.461 15.398-93.41 10.773-134.2-12.68zm128.31 164.44h.003907c.097656 34.523-13.625 67.652-38.102 91.996l-74.863 74.871c-6.9531 6.6328-16.191 10.332-25.797 10.332s-18.844-3.6992-25.797-10.332l-74.863-74.871c-24.48-24.344-38.199-57.473-38.102-91.996v-131.64c22.879 6.2344 46.762 7.8867 70.281 4.8633 23.516-3.0234 46.207-10.664 66.762-22.484l1.7188-.99219 1.7188.99219h.007812c20.555 11.816 43.242 19.457 66.758 22.48 23.52 3.0234 47.398 1.3711 70.277-4.8594z"/><path d="m354.43 260.57c0-2.3203-.92188-4.5469-2.5625-6.1875l-66.496-66.48c-3.4258-3.3594-8.918-3.3281-12.312.0625-3.3906 3.3906-3.418 8.8828-.058594 12.309l60.309 60.293-60.312 60.312c-1.668 1.6367-2.6133 3.8672-2.625 6.2031-.011719 2.3359.91406 4.582 2.5625 6.2305 1.6523 1.6523 3.8984 2.5742 6.2305 2.5625 2.3359-.011719 4.5703-.95703 6.207-2.625l66.496-66.496c1.6406-1.6406 2.5625-3.8633 2.5625-6.1836z"/><path d="m345.68 318.32c-4.832 0-8.75 3.918-8.75 8.75s3.918 8.75 8.75 8.75h86.449c4.832 0 8.75-3.918 8.75-8.75s-3.918-8.75-8.75-8.75z"/></svg>