<svg fill="#fff" height="48" viewBox="0 0 700 700" width="48" xmlns="http://www.w3.org/2000/svg"><path d="m193.01 425.26c-3.5391 0-6.7266-2.1328-8.082-5.4023-1.3555-3.2695-.60547-7.0312 1.8945-9.5352l130.33-130.33-130.33-130.32c-1.668-1.6367-2.6133-3.8711-2.625-6.2031-.011719-2.3359.91406-4.582 2.5625-6.2344 1.6523-1.6484 3.8984-2.5742 6.2305-2.5625 2.3359.011719 4.5703.95703 6.207 2.6289l136.51 136.51c1.6445 1.6406 2.5664 3.8672 2.5664 6.1875s-.92188 4.543-2.5664 6.1836l-136.51 136.52c-1.6406 1.6445-3.8672 2.5664-6.1875 2.5625z"/><path d="m506.99 425.26h-177.46c-4.832 0-8.75-3.918-8.75-8.75s3.918-8.75 8.75-8.75h177.46c4.832 0 8.75 3.918 8.75 8.75s-3.918 8.75-8.75 8.75z"/></svg>