<svg fill="#fff" height="48" viewBox="0 0 700 700" width="48" xmlns="http://www.w3.org/2000/svg"><path d="m449.5 395.81c-3.5469 0-6.7422-2.1445-8.0898-5.4258-1.3516-3.2812-.58203-7.0508 1.9375-9.543l95.465-94.492-95.465-94.488c-3.3594-3.4102-3.3516-8.8906.015625-12.293 3.3633-3.4062 8.8438-3.4727 12.289-.14844l101.75 100.71c1.6641 1.6406 2.5977 3.8828 2.5977 6.2188 0 2.3359-.93359 4.5781-2.5977 6.2227l-101.75 100.71v-.003906c-1.6328 1.625-3.8477 2.5352-6.1523 2.5312z"/><path d="m250.5 395.81c-2.3047.003906-4.5195-.90625-6.1523-2.5312l-101.75-100.71c-1.6641-1.6445-2.5977-3.8867-2.5977-6.2227 0-2.3359.93359-4.5781 2.5977-6.2188l101.75-100.71c3.4453-3.3242 8.9258-3.2578 12.289.14844 3.3672 3.4023 3.375 8.8828.015625 12.293l-95.465 94.488 95.465 94.492c2.5195 2.4922 3.2852 6.2617 1.9375 9.543s-4.543 5.4258-8.0898 5.4258z"/><path d="m300.37 439.56c-1.0312 0-2.0547-.17969-3.0234-.53125-4.5352-1.6758-6.8555-6.7031-5.1953-11.242l110.91-301.62c1.6719-4.5391 6.707-6.8633 11.246-5.1953 4.5391 1.6719 6.8672 6.707 5.1953 11.246l-110.91 301.62c-1.2734 3.4375-4.5508 5.7227-8.2188 5.7266z"/></svg>