<svg xmlns="http://www.w3.org/2000/svg" viewBox="0 0 32 40" x="0px" y="0px" fill="#fff" ><path d="M22.35254,4.80423a.5.5,0,0,0,0,1,.27425.27425,0,0,1,.27344.27344V27.21341a.27341.27341,0,0,1-.27344.27246H9.64746a.27341.27341,0,0,1-.27344-.27246V6.07767a.27425.27425,0,0,1,.27344-.27344.5.5,0,0,0,0-1A1.27492,1.27492,0,0,0,8.374,6.07767V27.21341a1.27471,1.27471,0,0,0,1.27344,1.27246H22.35254A1.27471,1.27471,0,0,0,23.626,27.21341V6.07767A1.27492,1.27492,0,0,0,22.35254,4.80423Z"/><path d="M10.98145,21.07571A5.01855,5.01855,0,1,0,16,16.05716,5.0238,5.0238,0,0,0,10.98145,21.07571ZM16,17.05716a4.01856,4.01856,0,1,1-4.01855,4.01855A4.02312,4.02312,0,0,1,16,17.05716Z"/><path d="M16,23.10306a2.02735,2.02735,0,1,0-2.02734-2.02735A2.03012,2.03012,0,0,0,16,23.10306Zm0-3.05469a1.02735,1.02735,0,1,1-1.02734,1.02734A1.02881,1.02881,0,0,1,16,20.04837Z"/><path d="M14.64551,8.1431a1.91623,1.91623,0,1,0,2.71,0A1.96089,1.96089,0,0,0,14.64551,8.1431Zm2.00293.707a.91634.91634,0,1,1-1.2959,0,.91593.91593,0,0,1,1.2959,0Z"/><path d="M18.85352,7.14505a.5.5,0,0,0,.35351-.85352,4.53491,4.53491,0,0,0-6.41308,0,.49995.49995,0,0,0,.707.707,3.61866,3.61866,0,0,1,4.999,0A.49842.49842,0,0,0,18.85352,7.14505Z"/><path d="M11.60059,5.09817a6.22887,6.22887,0,0,1,8.79882,0,.49995.49995,0,0,0,.707-.707,7.22853,7.22853,0,0,0-10.2129,0,.49995.49995,0,0,0,.707.707Z"/><text x="0" y="47" fill="#000000" font-size="5px" font-weight="bold" font-family="'Helvetica Neue', Helvetica, Arial-Unicode, Arial, Sans-serif">Created by Petr Bilek</text><text x="0" y="52" fill="#000000" font-size="5px" font-weight="bold" font-family="'Helvetica Neue', Helvetica, Arial-Unicode, Arial, Sans-serif">from the Noun Project</text></svg>