<svg xmlns="http://www.w3.org/2000/svg" viewBox="0 0 32 40" x="0px" y="0px" fill="#fff"><path d="M21.21875,1.9834H10.78125A1.73327,1.73327,0,0,0,9.0498,3.71485V28.28516a1.73326,1.73326,0,0,0,1.73145,1.73144h2.59229a.5.5,0,1,0,0-1H10.78125a.73227.73227,0,0,1-.73145-.73144V3.71485a.73228.73228,0,0,1,.73145-.73145h10.4375a.73228.73228,0,0,1,.73145.73145V28.28516a.73227.73227,0,0,1-.73145.73144H18.78662a.5.5,0,0,0,0,1h2.43213a1.73326,1.73326,0,0,0,1.73145-1.73144V3.71485A1.73327,1.73327,0,0,0,21.21875,1.9834Z"/><path d="M12.669,9.31543h6.6621a.747.747,0,0,0,.7461-.74609V6.13965a.747.747,0,0,0-.7461-.74609H12.669a.747.747,0,0,0-.7461.74609V8.56934A.747.747,0,0,0,12.669,9.31543Zm.2539-2.92187h6.1543V8.31543h-6.1543Z"/><path d="M11.92285,14.07618a.747.747,0,0,0,.7461.74609h6.6621a.747.747,0,0,0,.7461-.74609V11.64649a.747.747,0,0,0-.7461-.7461H12.669a.747.747,0,0,0-.7461.7461Zm1-2.17579h6.1543v1.92188h-6.1543Z"/><path d="M19.28662,25.752v-6.1084a1.05475,1.05475,0,0,0-1.05322-1.05371h-.30176V18.46a1.05486,1.05486,0,0,0-1.05371-1.05371H15.12207A1.05486,1.05486,0,0,0,14.06836,18.46v.12989H13.7666a1.05475,1.05475,0,0,0-1.05322,1.05371V25.752a1.05455,1.05455,0,0,0,1.05322,1.05273H15.5v3.502a.5.5,0,0,0,1,0v-3.502h1.7334A1.05455,1.05455,0,0,0,19.28662,25.752Zm-2.355-7.292v3.169a.05387.05387,0,0,1-.05371.05371l-1.80957-.05371.05371-3.22266Zm-3.21826,7.292.05322-6.16211h.30176v2.03906a1.05486,1.05486,0,0,0,1.05371,1.05371h1.75586a1.05486,1.05486,0,0,0,1.05371-1.05371V19.62128l.355.02228-.05322,6.16113Z"/></svg>